<svg width="23" height="24" viewBox="0 0 23 24" fill="none" xmlns="http://www.w3.org/2000/svg">
<path fill-rule="evenodd" clip-rule="evenodd" d="M14.3107 16.9235H7.90647C7.45052 16.9235 7.08047 16.5539 7.08047 16.0985C7.08047 15.6431 7.45052 15.2735 7.90647 15.2735H14.3107C14.7667 15.2735 15.1367 15.6431 15.1367 16.0985C15.1367 16.5539 14.7667 16.9235 14.3107 16.9235ZM19.0916 5.1238C18.6918 4.7718 18.237 4.3736 17.6951 3.8731C17.4495 3.6751 17.1808 3.4485 16.8956 3.2087C15.2876 1.8546 13.0849 0 11.0772 0C9.09261 0 7.03201 1.7512 5.37671 3.1581C5.07054 3.4177 4.78419 3.6619 4.49234 3.8984C3.97912 4.3736 3.52427 4.7729 3.12338 5.126C0.494499 7.4371 0 8.0432 0 13.4343C0 23.1 2.79849 23.1 11.108 23.1C19.4165 23.1 22.2161 23.1 22.2161 13.4343C22.2161 8.0421 21.7216 7.436 19.0916 5.1238Z" fill="#52D0AF"/>
</svg>
