<svg width="27" height="27" viewBox="0 0 27 27" fill="none" xmlns="http://www.w3.org/2000/svg">
<path fill-rule="evenodd" clip-rule="evenodd" d="M13.045 23.8279C8.97904 23.8279 5.50684 23.1959 5.50684 20.665C5.50684 18.1342 8.95701 15.7979 13.045 15.7979C17.1109 15.7979 20.5831 18.1115 20.5831 20.6424C20.5831 23.1722 17.1329 23.8279 13.045 23.8279Z" stroke="black" stroke-width="2" stroke-linecap="round" stroke-linejoin="round"/>
<path fill-rule="evenodd" clip-rule="evenodd" d="M13.037 12.2911C15.7052 12.2911 17.8678 10.1311 17.8678 7.46614C17.8678 4.80114 15.7052 2.64014 13.037 2.64014C10.3687 2.64014 8.20511 4.80114 8.20511 7.46614C8.1961 10.1221 10.3437 12.2821 13.0029 12.2911C13.0149 12.2911 13.0259 12.2911 13.037 12.2911Z" stroke="black" stroke-width="2" stroke-linecap="round" stroke-linejoin="round"/>
</svg>
